<?xml version="1.0" encoding="utf-8"?>
<!-- Generator: Adobe Illustrator 25.2.1, SVG Export Plug-In . SVG Version: 6.00 Build 0)  -->
<svg version="1.1" id="Layer_1" xmlns="http://www.w3.org/2000/svg" xmlns:xlink="http://www.w3.org/1999/xlink" x="0px" y="0px"
	 viewBox="0 0 248 250.9" style="enable-background:new 0 0 248 250.9;" xml:space="preserve">
<style type="text/css">
	.st0{fill:#90B893;}
	.st1{fill:#183B48;}
</style>
<path class="st0" d="M235.4,150.6H199v91c0,4.4-4.3,8-9.6,8H58.1c-5.3,0-9.6-3.6-9.6-8v-91H12.2c-7.8,0-12.3-7.3-7.8-12.6l54.5-64.9
	L116,5c3.8-4.6,11.9-4.6,15.7,0l23.8,28.4V10.9c0-4.4,4.3-8,9.6-8h24.4c5.3,0,9.6,3.6,9.6,8v74.4l44.2,52.7
	C247.7,143.3,243.1,150.6,235.4,150.6"/>
<path class="st1" d="M186.7,182.9h0.1l-0.9,48.5c-0.1,3.5-2.9,6.3-6.4,6.2l-45.6-0.8c-8,0.4-16.3-3.1-21.3-10.8
	c-5.7-8.6-5.2-20.4,1.3-28.5c4.8-6,11.6-9,18.5-9.1c2.4,0,4.8,0.3,7.1,1.1c-0.7-2.4-0.9-4.9-0.8-7.4c0.3-6.8,3.6-13.5,9.6-18.1
	c8.3-6.4,20.2-6.4,28.6-0.1C183.3,168.6,186.6,175.8,186.7,182.9"/>
</svg>
