<?xml version="1.0" encoding="utf-8"?>
<!-- Generator: Adobe Illustrator 26.0.2, SVG Export Plug-In . SVG Version: 6.00 Build 0)  -->
<svg version="1.1" id="Layer_1" xmlns="http://www.w3.org/2000/svg" xmlns:xlink="http://www.w3.org/1999/xlink" x="0px" y="0px"
	 viewBox="0 0 248 250.9" style="enable-background:new 0 0 248 250.9;" xml:space="preserve">
<style type="text/css">
	.st0{fill:#90B893;}
	.st1{fill:#C3E1C9;}
</style>
<path class="st0" d="M235.4,150.6h-36.37v91.01c0,4.41-4.29,7.99-9.58,7.99H58.14c-5.29,0-9.58-3.58-9.58-7.99V150.6H12.22
	c-7.75,0-12.29-7.28-7.85-12.57l54.45-64.9L115.96,5c3.82-4.55,11.89-4.55,15.7,0l23.8,28.37V10.93c0-4.41,4.29-7.99,9.58-7.99
	h24.41c5.29,0,9.58,3.58,9.58,7.99v74.38l44.22,52.71C247.7,143.32,243.15,150.6,235.4,150.6"/>
<path class="st1" d="M186.67,182.93h0.11l-0.87,48.47c-0.06,3.49-2.92,6.27-6.38,6.21l-45.57-0.83c-8.04,0.45-16.27-3.15-21.34-10.8
	c-5.71-8.63-5.18-20.4,1.29-28.47c4.81-5.99,11.61-9.03,18.48-9.09c2.41-0.04,4.83,0.34,7.15,1.05c-0.68-2.42-0.91-4.93-0.78-7.42
	c0.34-6.81,3.57-13.48,9.6-18.09c8.31-6.36,20.17-6.4,28.55-0.14C183.32,168.61,186.56,175.78,186.67,182.93"/>
</svg>
