<?xml version="1.0" encoding="utf-8"?>
<!-- Generator: Adobe Illustrator 26.0.2, SVG Export Plug-In . SVG Version: 6.00 Build 0)  -->
<svg version="1.1" id="Layer_1" xmlns="http://www.w3.org/2000/svg" xmlns:xlink="http://www.w3.org/1999/xlink" x="0px" y="0px"
	 viewBox="0 0 389 100.7" style="enable-background:new 0 0 389 100.7;" xml:space="preserve">
<style type="text/css">
	.st0{fill:#90B893;}
	.st1{fill:#C3E1C9;}
</style>
<path class="st0" d="M95.11,30.94c1.23-1.06,1.85-2.55,1.85-4.47c0-1.9-0.65-3.33-1.95-4.28c-1.3-0.95-3.06-1.43-5.29-1.43H78.1
	v11.77h11.4C92.01,32.54,93.88,32.01,95.11,30.94 M94.37,17.86c1.27-0.92,1.91-2.32,1.91-4.2c0-1.92-0.62-3.41-1.86-4.47
	c-1.24-1.06-3.1-1.59-5.59-1.59H78.1v11.64h11.11C91.38,19.24,93.09,18.78,94.37,17.86 M89.06,5.9c3,0,5.28,0.64,6.83,1.93
	c1.56,1.29,2.34,3.22,2.34,5.8c0,1.64-0.4,2.97-1.18,3.99c-0.79,1.02-1.98,1.79-3.57,2.31c1.81,0.47,3.17,1.24,4.09,2.32
	c0.91,1.08,1.37,2.5,1.37,4.27c0,2.61-0.79,4.55-2.39,5.82s-3.86,1.91-6.8,1.91H76.17V5.9H89.06z"/>
<rect x="105.87" y="5.9" class="st0" width="1.92" height="28.34"/>
<polygon class="st0" points="122.85,7.68 112.43,7.68 112.43,5.9 135.21,5.9 135.21,7.68 124.78,7.68 124.78,34.24 122.85,34.24 "/>
<polygon class="st0" points="138.47,5.9 158.38,5.9 158.38,7.68 140.39,7.68 140.39,19.02 155.94,19.02 155.94,20.59 140.39,20.59 
	140.39,32.46 158.38,32.46 158.38,34.24 138.47,34.24 "/>
<path class="st0" d="M177.16,33.72c-1.65-0.72-2.95-1.74-3.89-3.04c-0.94-1.3-1.56-2.82-1.85-4.56h2.15
	c0.29,1.46,0.86,2.71,1.71,3.74c0.85,1.04,1.95,1.83,3.27,2.37c1.33,0.54,2.84,0.81,4.54,0.81c1.79,0,3.4-0.24,4.85-0.73
	c1.45-0.49,2.59-1.21,3.43-2.15c0.84-0.94,1.26-2.07,1.26-3.37c0-1.3-0.35-2.35-1.07-3.14c-0.71-0.79-1.75-1.41-3.11-1.87
	c-1.36-0.46-3.24-0.9-5.64-1.33c-2.57-0.46-4.6-0.95-6.09-1.48c-1.49-0.53-2.63-1.25-3.42-2.18c-0.79-0.93-1.18-2.15-1.18-3.68
	c0-1.53,0.46-2.88,1.38-4.07c0.92-1.19,2.2-2.11,3.85-2.77c1.65-0.66,3.52-0.99,5.62-0.99c2.03,0,3.86,0.33,5.48,1
	c1.62,0.67,2.94,1.61,3.96,2.83c1.02,1.22,1.67,2.64,1.95,4.25h-2.05c-0.31-1.28-0.9-2.39-1.75-3.34c-0.85-0.95-1.93-1.69-3.23-2.2
	s-2.75-0.77-4.35-0.77c-1.77,0-3.32,0.27-4.64,0.81c-1.32,0.54-2.33,1.27-3.04,2.19c-0.71,0.92-1.07,1.94-1.07,3.06
	c0,1.15,0.32,2.07,0.98,2.76c0.65,0.69,1.62,1.24,2.89,1.65c1.28,0.41,3.05,0.82,5.32,1.22c2.7,0.48,4.84,1.01,6.43,1.57
	c1.59,0.57,2.81,1.36,3.66,2.38c0.85,1.02,1.27,2.38,1.27,4.09c0,1.68-0.51,3.13-1.54,4.33c-1.02,1.21-2.42,2.12-4.18,2.75
	c-1.77,0.63-3.76,0.94-5.97,0.94C180.79,34.81,178.81,34.44,177.16,33.72"/>
<rect x="201.33" y="5.9" class="st0" width="1.92" height="28.34"/>
<polygon class="st0" points="209.09,32.95 226.59,7.68 209.09,7.68 209.09,5.9 229.21,5.9 229.21,7.19 211.69,32.46 229.21,32.46 
	229.21,34.24 209.09,34.24 "/>
<polygon class="st0" points="234.18,5.9 254.09,5.9 254.09,7.68 236.1,7.68 236.1,19.02 251.64,19.02 251.64,20.59 236.1,20.59 
	236.1,32.46 254.09,32.46 254.09,34.24 234.18,34.24 "/>
<path class="st0" d="M275.23,31.15c1.67-0.87,2.91-2.1,3.74-3.68c0.82-1.58,1.23-3.44,1.23-5.57v-3.68c0-2.12-0.4-3.97-1.21-5.54
	c-0.81-1.57-2.05-2.8-3.72-3.68c-1.67-0.88-3.75-1.32-6.24-1.32h-7.74v24.78h7.74C271.49,32.46,273.56,32.02,275.23,31.15
	 M269.11,5.9c2.85,0,5.26,0.51,7.21,1.53c1.95,1.02,3.41,2.44,4.37,4.26s1.45,3.96,1.45,6.41v3.91c0,2.44-0.48,4.57-1.44,6.41
	c-0.96,1.83-2.41,3.26-4.35,4.28c-1.94,1.02-4.35,1.54-7.23,1.54h-9.74V5.9H269.11z"/>
<path class="st0" d="M101.4,78.91c-1.38,1.19-3.61,1.8-6.63,1.8H80.79V67.72h14.28c2.69,0,4.8,0.55,6.29,1.65
	c1.37,1,2.03,2.51,2.03,4.61C103.39,76.14,102.74,77.75,101.4,78.91 M80.79,49.85h13.05c3,0,5.23,0.6,6.62,1.8
	c1.35,1.15,2,2.77,2,4.93c0,2.06-0.64,3.52-1.97,4.48c-1.45,1.05-3.51,1.59-6.11,1.59H80.79V49.85z M106.86,67.25
	c-0.78-0.91-1.75-1.69-2.92-2.32c0.9-0.59,1.65-1.28,2.26-2.07c1.27-1.64,1.92-3.77,1.92-6.33c0-3.96-1.25-7-3.72-9.04
	c-2.38-1.96-5.83-2.95-10.24-2.95h-19v41.48h19.93c4.33,0,7.76-0.98,10.18-2.92c2.52-2.02,3.8-5.07,3.8-9.07
	C109.07,71.27,108.33,68.99,106.86,67.25"/>
<path class="st0" d="M140.6,56.12v17.43c0,2.64-0.58,4.99-1.71,6.99c-1.15,2.02-2.75,3.6-4.78,4.69c-1.99,1.07-4.26,1.61-6.75,1.61
	c-2.63,0-4.97-0.58-6.96-1.73c-2.01-1.15-3.58-2.76-4.66-4.79c-1.05-1.99-1.59-4.27-1.59-6.77V56.12h5.39v17.4
	c0,1.62,0.35,3.06,1.04,4.26c0.69,1.22,1.59,2.12,2.78,2.77c1.2,0.66,2.51,0.98,4,0.98c1.57,0,2.91-0.34,4.1-1.04
	c1.19-0.7,2.08-1.62,2.73-2.83c0.66-1.22,0.99-2.61,0.99-4.14v-17.4H140.6z"/>
<path class="st0" d="M153.4,49.04c0,1.02-0.37,1.92-1.06,2.6c-0.69,0.67-1.58,1.02-2.59,1.02c-1.02,0-1.91-0.36-2.59-1.04
	c-0.68-0.67-1.04-1.57-1.04-2.58c0-1.05,0.37-1.95,1.08-2.63c0.68-0.65,1.56-1,2.55-1c1.03,0,1.93,0.36,2.61,1.04
	C153.04,47.13,153.4,48.02,153.4,49.04"/>
<rect x="147.04" y="56.12" class="st0" width="5.42" height="29.9"/>
<rect x="159.55" y="44.88" class="st0" width="5.42" height="41.14"/>
<path class="st0" d="M185.95,81.56c-1.98,0-3.7-0.43-5.26-1.3c-1.55-0.86-2.73-2.05-3.62-3.63c-0.89-1.58-1.34-3.45-1.34-5.55
	c0-1.99,0.43-3.81,1.28-5.41c0.84-1.59,2-2.8,3.55-3.72c1.54-0.91,3.35-1.37,5.39-1.37c1.92,0,3.68,0.43,5.23,1.29
	c1.54,0.86,2.73,2.05,3.61,3.65c0.89,1.58,1.34,3.46,1.34,5.56c0,1.99-0.43,3.8-1.28,5.4c-0.85,1.59-2.01,2.81-3.56,3.72
	C189.76,81.1,187.97,81.56,185.95,81.56 M196.08,44.54v14.89c-0.69-0.7-1.45-1.32-2.29-1.87c-2.32-1.5-5.05-2.27-8.11-2.27
	c-2.85,0-5.47,0.66-7.79,1.96c-2.33,1.31-4.19,3.19-5.53,5.58c-1.34,2.38-2.02,5.15-2.02,8.25c0,2.91,0.64,5.59,1.89,7.96
	c1.27,2.41,3.09,4.33,5.42,5.72c2.32,1.38,5.03,2.08,8.03,2.08c3.09,0,5.85-0.75,8.2-2.22c1.06-0.66,2.01-1.43,2.83-2.31l0.31,3.71
	h4.47V44.54H196.08z"/>
<rect x="209" y="56.12" class="st0" width="5.42" height="29.9"/>
<path class="st0" d="M215.36,49.04c0,1.02-0.37,1.92-1.06,2.6c-0.69,0.67-1.59,1.02-2.59,1.02c-1.02,0-1.91-0.36-2.59-1.04
	c-0.68-0.67-1.04-1.57-1.04-2.58c0-1.05,0.37-1.95,1.08-2.63c0.68-0.65,1.56-1,2.55-1c1.03,0,1.93,0.36,2.61,1.04
	C215,47.13,215.36,48.02,215.36,49.04"/>
<path class="st0" d="M247.65,67.84v18.18h-5.39V67.89c0-1.4-0.32-2.63-0.97-3.75c-0.66-1.12-1.52-1.97-2.64-2.6
	c-1.13-0.63-2.33-0.94-3.68-0.94c-1.58,0-2.97,0.38-4.26,1.14c-1.3,0.78-2.29,1.78-3.03,3.07c-0.73,1.29-1.09,2.63-1.09,4.09v17.12
	h-5.41v-29.9h5.17l0.05,2.89c1.16-1.16,2.53-2.08,4.05-2.72c1.57-0.67,3.22-1,4.92-1c2.41,0,4.57,0.57,6.43,1.69
	c1.86,1.12,3.32,2.66,4.34,4.58C247.14,63.45,247.65,65.56,247.65,67.84"/>
<path class="st0" d="M278.38,56.12l-0.07,3.44c-0.72-0.74-1.52-1.4-2.42-1.98c-2.35-1.52-5.1-2.29-8.17-2.29
	c-2.85,0-5.47,0.66-7.79,1.96c-2.33,1.31-4.2,3.19-5.54,5.58c-1.33,2.38-2.01,5.15-2.01,8.25c0,2.91,0.64,5.58,1.89,7.94
	c1.26,2.39,3.08,4.29,5.41,5.66c2.31,1.36,5.02,2.06,8.04,2.06c3.17,0,5.91-0.75,8.14-2.23c0.83-0.55,1.59-1.18,2.28-1.89v1.21
	c0,1.87-0.42,3.48-1.25,4.78c-0.84,1.31-1.97,2.27-3.46,2.95c-1.54,0.69-3.34,1.04-5.37,1.04c-2.06,0-3.88-0.47-5.4-1.4
	c-1.55-0.94-2.71-2.19-3.54-3.81l-0.6-1.16l-5.04,1.76l0.76,1.53c1.25,2.51,3.1,4.52,5.48,5.98c2.38,1.46,5.19,2.2,8.34,2.2
	c3.01,0,5.69-0.53,7.97-1.58c2.36-1.09,4.22-2.7,5.53-4.81c1.31-2.09,1.97-4.6,1.97-7.46V56.12H278.38z M276.91,76.48
	c-0.85,1.59-2.01,2.81-3.55,3.72c-1.53,0.9-3.34,1.36-5.38,1.36c-1.97,0-3.69-0.43-5.26-1.3c-1.54-0.86-2.73-2.05-3.61-3.63
	c-0.89-1.58-1.34-3.45-1.34-5.55c0-1.99,0.43-3.81,1.28-5.41c0.83-1.59,2-2.8,3.55-3.72c1.54-0.91,3.35-1.37,5.38-1.37
	c1.93,0,3.69,0.43,5.24,1.29c1.54,0.86,2.73,2.06,3.63,3.65c0.89,1.59,1.34,3.46,1.34,5.56C278.19,73.07,277.76,74.88,276.91,76.48z
	"/>
<path class="st0" d="M328.87,72.18h5.56l-0.19,1.66c-0.27,2.55-1.16,4.83-2.62,6.8c-1.47,1.96-3.53,3.5-6.13,4.6
	c-2.54,1.06-5.59,1.6-9.07,1.6c-3.54,0-6.72-0.68-9.45-2.01c-2.77-1.36-4.95-3.24-6.47-5.61c-1.53-2.38-2.31-5.06-2.31-7.98V59.29
	c0-3.06,0.82-5.81,2.44-8.19c1.6-2.35,3.82-4.2,6.61-5.48c2.73-1.27,5.82-1.91,9.18-1.91c3.35,0,6.31,0.51,8.81,1.52
	c2.55,1.03,4.62,2.49,6.12,4.35c1.52,1.86,2.49,4.03,2.88,6.46l0.29,1.75h-5.55l-0.28-1.15c-0.35-1.45-1.02-2.7-2.04-3.82
	c-1.02-1.12-2.39-2.01-4.09-2.66c-1.74-0.67-3.8-1-6.14-1c-2.3,0-4.46,0.45-6.42,1.34c-1.91,0.86-3.45,2.09-4.57,3.64
	c-1.1,1.52-1.64,3.21-1.64,5.15v11.95c0,1.98,0.54,3.67,1.65,5.19c1.13,1.56,2.68,2.78,4.59,3.64c1.95,0.88,4.1,1.33,6.39,1.33
	c2.4,0,4.53-0.34,6.31-1.02c1.7-0.65,3.07-1.58,4.07-2.76c1-1.17,1.61-2.54,1.87-4.17L328.87,72.18z"/>
<path class="st0" d="M352.43,81.56c-1.94,0-3.71-0.44-5.26-1.3c-1.54-0.86-2.73-2.05-3.61-3.63c-0.89-1.58-1.34-3.45-1.34-5.55
	c0-1.99,0.43-3.81,1.28-5.4c0.85-1.59,2.02-2.82,3.57-3.74c1.52-0.9,3.33-1.36,5.36-1.36c1.93,0,3.69,0.43,5.23,1.29
	c1.55,0.86,2.74,2.06,3.64,3.65c0.89,1.59,1.34,3.46,1.34,5.56c0,1.99-0.43,3.8-1.28,5.4c-0.85,1.59-2.01,2.81-3.55,3.72
	C356.28,81.1,354.47,81.56,352.43,81.56 M366.12,63.11c-1.29-2.41-3.14-4.33-5.5-5.72c-2.36-1.39-5.11-2.1-8.19-2.1
	c-2.9,0-5.56,0.66-7.92,1.95c-2.38,1.31-4.27,3.19-5.64,5.58c-1.35,2.38-2.04,5.16-2.04,8.26c0,2.91,0.65,5.6,1.93,7.97
	c1.3,2.41,3.15,4.33,5.52,5.71c2.35,1.38,5.1,2.08,8.15,2.08c2.9,0,5.57-0.66,7.92-1.95c2.38-1.31,4.28-3.19,5.64-5.58
	c1.36-2.38,2.04-5.15,2.04-8.23C368.03,68.17,367.39,65.49,366.12,63.11"/>
<path class="st0" d="M384.5,79.25c0,3.19-2.59,5.78-5.78,5.78c-3.19,0-5.78-2.59-5.78-5.78c0-3.19,2.59-5.78,5.78-5.78
	C381.91,73.47,384.5,76.06,384.5,79.25"/>
<path class="st0" d="M60.58,62.86h-8.82v22.06c0,1.07-1.04,1.94-2.32,1.94H17.61c-1.28,0-2.32-0.87-2.32-1.94V62.86H6.48
	c-1.88,0-2.98-1.76-1.9-3.05l13.2-15.73l13.85-16.51c0.93-1.1,2.88-1.1,3.81,0l5.77,6.88V29c0-1.07,1.04-1.94,2.32-1.94h5.92
	c1.28,0,2.32,0.87,2.32,1.94v18.03l10.72,12.78C63.56,61.09,62.46,62.86,60.58,62.86"/>
<path class="st1" d="M48.77,70.69h0.03l-0.21,11.75c-0.01,0.85-0.71,1.52-1.55,1.51l-11.05-0.2c-1.95,0.11-3.94-0.76-5.17-2.62
	c-1.38-2.09-1.25-4.95,0.31-6.9c1.17-1.45,2.82-2.19,4.48-2.2c0.58-0.01,1.17,0.08,1.73,0.26c-0.16-0.59-0.22-1.2-0.19-1.8
	c0.08-1.65,0.87-3.27,2.33-4.39c2.01-1.54,4.89-1.55,6.92-0.03C47.96,67.22,48.74,68.96,48.77,70.69"/>
</svg>
