<?xml version="1.0" encoding="utf-8"?>
<!-- Generator: Adobe Illustrator 23.1.0, SVG Export Plug-In . SVG Version: 6.00 Build 0)  -->
<svg version="1.1" id="Layer_1" xmlns="http://www.w3.org/2000/svg" xmlns:xlink="http://www.w3.org/1999/xlink" x="0px" y="0px"
	 viewBox="0 0 63.565 22.822" style="enable-background:new 0 0 63.565 22.822;" xml:space="preserve">
<g>
	<g>
		<path style="fill:#293B51;" d="M0.855,21.163v-3.579l2.631-0.003v0.669H1.571v0.764h1.436v0.667H1.571v0.813h1.91v0.669H0.855z"/>
		<path style="fill:#293B51;" d="M6.418,17.584v3.579H5.75v-0.191c-0.179,0.128-0.354,0.191-0.525,0.191
			c-0.366,0-0.656-0.12-0.872-0.358c-0.215-0.239-0.322-0.518-0.322-0.836c0-0.317,0.107-0.597,0.322-0.835
			c0.216-0.239,0.506-0.358,0.872-0.358c0.238,0.016,0.414,0.08,0.525,0.193v-1.388L6.418,17.584z M5.75,20.185v-0.388
			c-0.032-0.268-0.199-0.424-0.502-0.47c-0.382,0.03-0.597,0.229-0.645,0.594c0.017,0.446,0.231,0.677,0.645,0.692
			C5.551,20.565,5.718,20.423,5.75,20.185z"/>
		<path style="fill:#293B51;" d="M7.077,17.963c0.063-0.065,0.149-0.097,0.258-0.097c0.114,0,0.204,0.032,0.268,0.097
			c0.063,0.064,0.095,0.144,0.095,0.239c0,0.096-0.031,0.176-0.095,0.239c-0.063,0.063-0.151,0.095-0.263,0.095
			c-0.111,0-0.199-0.031-0.263-0.095c-0.063-0.064-0.096-0.144-0.096-0.239C6.981,18.106,7.014,18.027,7.077,17.963z M7.674,21.163
			v-2.39H7.006v2.39H7.674z"/>
		<path style="fill:#293B51;" d="M9.605,18.842c0.124,0.055,0.24,0.135,0.349,0.242l-0.373,0.42
			c-0.107-0.13-0.243-0.193-0.405-0.193c-0.161,0-0.269,0.029-0.322,0.089c-0.055,0.06-0.055,0.114,0,0.162
			c0.054,0.049,0.161,0.09,0.322,0.121c0.237,0.022,0.432,0.09,0.583,0.203c0.15,0.113,0.227,0.31,0.227,0.59
			c0,0.226-0.09,0.4-0.268,0.524c-0.179,0.125-0.387,0.187-0.623,0.187c-0.227,0-0.414-0.032-0.564-0.097
			c-0.15-0.064-0.28-0.15-0.389-0.259l0.37-0.418c0.108,0.129,0.276,0.204,0.504,0.225c0.183,0,0.301-0.03,0.354-0.09
			c0.054-0.06,0.062-0.119,0.024-0.179c-0.037-0.06-0.163-0.1-0.378-0.121c-0.194-0.022-0.372-0.081-0.533-0.179
			C8.32,19.972,8.24,19.79,8.24,19.52c0-0.247,0.092-0.436,0.275-0.564c0.184-0.13,0.373-0.195,0.567-0.195
			C9.307,18.761,9.481,18.788,9.605,18.842z"/>
		<path style="fill:#293B51;" d="M10.682,20.837c-0.232-0.233-0.348-0.522-0.348-0.868c0-0.347,0.115-0.637,0.348-0.869
			c0.232-0.231,0.522-0.349,0.869-0.349c0.348,0,0.637,0.117,0.869,0.349c0.233,0.232,0.349,0.522,0.349,0.869
			c0,0.348-0.116,0.637-0.349,0.869c-0.232,0.232-0.521,0.349-0.869,0.349C11.204,21.186,10.914,21.07,10.682,20.837z
			 M11.549,20.609c0.182,0,0.329-0.062,0.441-0.183c0.113-0.122,0.17-0.274,0.17-0.455c0-0.182-0.057-0.334-0.17-0.456
			c-0.112-0.123-0.261-0.184-0.443-0.184c-0.181,0-0.327,0.061-0.439,0.184c-0.113,0.122-0.17,0.274-0.17,0.456
			c0,0.181,0.057,0.333,0.17,0.455C11.22,20.548,11.367,20.609,11.549,20.609z"/>
		<path style="fill:#293B51;" d="M13.89,19.644v1.519h-0.668v-2.318l0.668-0.071v0.217c0.161-0.144,0.352-0.215,0.573-0.215
			c0.303,0,0.533,0.092,0.692,0.274c0.159,0.184,0.238,0.395,0.238,0.633v1.48h-0.668V19.85c0-0.159-0.04-0.282-0.119-0.37
			c-0.08-0.087-0.2-0.134-0.36-0.138C14.108,19.351,13.989,19.452,13.89,19.644z"/>
		<path style="fill:#293B51;" d="M17.682,21.163v-3.582h0.717v1.433h1.669v-1.435h0.716v3.581l-0.716,0.003v-1.48h-1.669v1.48
			H17.682z"/>
		<path style="fill:#293B51;" d="M21.712,20.837c-0.232-0.233-0.348-0.522-0.348-0.868c0-0.347,0.115-0.637,0.348-0.869
			c0.233-0.231,0.523-0.349,0.869-0.349c0.347,0,0.637,0.117,0.869,0.349c0.232,0.232,0.349,0.522,0.349,0.869
			c0,0.348-0.116,0.637-0.349,0.869c-0.232,0.232-0.522,0.349-0.869,0.349C22.234,21.186,21.944,21.07,21.712,20.837z
			 M22.579,20.609c0.181,0,0.329-0.062,0.441-0.183c0.113-0.122,0.17-0.274,0.17-0.455c0-0.182-0.057-0.334-0.17-0.456
			c-0.112-0.123-0.261-0.184-0.444-0.184c-0.18,0-0.326,0.061-0.439,0.184c-0.112,0.122-0.169,0.274-0.169,0.456
			c0,0.181,0.057,0.333,0.169,0.455C22.25,20.548,22.397,20.609,22.579,20.609z"/>
		<path style="fill:#293B51;" d="M24.912,19.635v1.528h-0.669v-2.318l0.669-0.071v0.212c0.149-0.14,0.34-0.21,0.572-0.21
			c0.303,0,0.533,0.092,0.692,0.274c0.175-0.183,0.438-0.274,0.788-0.274c0.303,0,0.533,0.092,0.692,0.274
			c0.159,0.184,0.238,0.395,0.238,0.633v1.48h-0.668V19.85c0-0.159-0.036-0.282-0.108-0.37c-0.072-0.087-0.188-0.134-0.349-0.138
			c-0.132,0.009-0.247,0.097-0.344,0.262c-0.008,0.05-0.013,0.1-0.013,0.151v1.408h-0.668V19.85c0-0.159-0.036-0.282-0.107-0.37
			c-0.071-0.087-0.188-0.134-0.349-0.138C25.144,19.351,25.018,19.449,24.912,19.635z"/>
		<path style="fill:#293B51;" d="M28.359,19.969c0-0.35,0.111-0.637,0.334-0.859c0.223-0.223,0.509-0.334,0.859-0.334
			c0.35,0,0.629,0.111,0.836,0.334c0.207,0.223,0.31,0.51,0.31,0.859v0.239h-1.647c0.016,0.127,0.071,0.227,0.167,0.299
			c0.096,0.071,0.206,0.107,0.334,0.107c0.223,0,0.422-0.064,0.597-0.19l0.382,0.382c-0.175,0.238-0.501,0.358-0.979,0.358
			c-0.351,0-0.637-0.111-0.859-0.334C28.471,20.605,28.359,20.319,28.359,19.969z M29.887,19.432
			c-0.095-0.071-0.207-0.107-0.334-0.107c-0.128,0-0.238,0.036-0.334,0.107c-0.096,0.072-0.144,0.172-0.144,0.299h0.955
			C30.03,19.603,29.982,19.504,29.887,19.432z"/>
		<path style="fill:#293B51;" d="M32.95,17.579h0.714v3.584H32.95V17.579z"/>
		<path style="fill:#293B51;" d="M34.986,19.635v1.528h-0.668v-2.318l0.668-0.071v0.212c0.15-0.14,0.341-0.21,0.573-0.21
			c0.302,0,0.533,0.092,0.692,0.274c0.175-0.183,0.437-0.274,0.788-0.274c0.303,0,0.533,0.092,0.692,0.274
			c0.159,0.184,0.238,0.395,0.238,0.633v1.48h-0.668V19.85c0-0.159-0.036-0.282-0.108-0.37c-0.072-0.087-0.188-0.134-0.349-0.138
			c-0.132,0.009-0.247,0.097-0.344,0.262c-0.009,0.05-0.012,0.1-0.012,0.151v1.408h-0.669V19.85c0-0.159-0.035-0.282-0.107-0.37
			c-0.071-0.087-0.188-0.134-0.349-0.138C35.22,19.351,35.094,19.449,34.986,19.635z"/>
		<path style="fill:#293B51;" d="M38.551,22.166v-3.321l0.669-0.071v0.191c0.178-0.127,0.354-0.191,0.525-0.191
			c0.366,0,0.656,0.119,0.871,0.358c0.215,0.238,0.322,0.517,0.322,0.835c0,0.318-0.107,0.597-0.322,0.836
			c-0.215,0.238-0.505,0.358-0.871,0.358c-0.239-0.016-0.414-0.08-0.525-0.192v1.2L38.551,22.166z M39.22,19.752v0.387
			c0.032,0.268,0.199,0.424,0.501,0.471c0.382-0.03,0.597-0.229,0.645-0.595c-0.016-0.445-0.23-0.677-0.645-0.692
			C39.419,19.37,39.252,19.513,39.22,19.752z"/>
		<path style="fill:#293B51;" d="M42.032,19.038c0.17-0.175,0.378-0.263,0.623-0.263c0.078,0,0.151,0.006,0.222,0.019l-0.105,0.659
			c-0.078-0.069-0.189-0.107-0.334-0.111c-0.163,0.011-0.298,0.128-0.406,0.353v1.469h-0.669v-2.318l0.669-0.071V19.038z"/>
		<path style="fill:#293B51;" d="M43.526,20.837c-0.232-0.233-0.349-0.522-0.349-0.868c0-0.347,0.116-0.637,0.349-0.869
			c0.232-0.231,0.522-0.349,0.869-0.349c0.347,0,0.637,0.117,0.869,0.349c0.232,0.232,0.349,0.522,0.349,0.869
			c0,0.348-0.116,0.637-0.349,0.869c-0.232,0.232-0.522,0.349-0.869,0.349C44.049,21.186,43.759,21.07,43.526,20.837z
			 M44.393,20.609c0.182,0,0.328-0.062,0.441-0.183c0.112-0.122,0.17-0.274,0.17-0.455c0-0.182-0.058-0.334-0.17-0.456
			c-0.113-0.123-0.261-0.184-0.444-0.184c-0.18,0-0.326,0.061-0.438,0.184c-0.113,0.122-0.17,0.274-0.17,0.456
			c0,0.181,0.057,0.333,0.17,0.455C44.064,20.548,44.212,20.609,44.393,20.609z"/>
		<path style="fill:#293B51;" d="M46.547,18.775l0.561,1.492l0.573-1.492h0.678l-0.957,2.388h-0.573l-0.96-2.388H46.547z"/>
		<path style="fill:#293B51;" d="M48.667,19.969c0-0.35,0.111-0.637,0.334-0.859c0.223-0.223,0.51-0.334,0.859-0.334
			c0.351,0,0.629,0.111,0.836,0.334c0.207,0.223,0.311,0.51,0.311,0.859v0.239h-1.647c0.016,0.127,0.071,0.227,0.167,0.299
			c0.096,0.071,0.207,0.107,0.334,0.107c0.224,0,0.422-0.064,0.597-0.19l0.383,0.382c-0.176,0.238-0.502,0.358-0.979,0.358
			c-0.35,0-0.637-0.111-0.859-0.334C48.778,20.605,48.667,20.319,48.667,19.969z M50.194,19.432
			c-0.095-0.071-0.206-0.107-0.334-0.107c-0.127,0-0.238,0.036-0.334,0.107c-0.096,0.072-0.144,0.172-0.144,0.299h0.955
			C50.338,19.603,50.29,19.504,50.194,19.432z"/>
		<path style="fill:#293B51;" d="M52.19,19.635v1.528h-0.668v-2.318l0.668-0.071v0.212c0.149-0.14,0.341-0.21,0.573-0.21
			c0.302,0,0.533,0.092,0.692,0.274c0.175-0.183,0.438-0.274,0.788-0.274c0.302,0,0.533,0.092,0.692,0.274
			c0.159,0.184,0.238,0.395,0.238,0.633v1.48h-0.668V19.85c0-0.159-0.036-0.282-0.107-0.37c-0.072-0.087-0.188-0.134-0.349-0.138
			c-0.132,0.009-0.247,0.097-0.344,0.262c-0.008,0.05-0.013,0.1-0.013,0.151v1.408h-0.668V19.85c0-0.159-0.036-0.282-0.107-0.37
			c-0.071-0.087-0.189-0.134-0.349-0.138C52.424,19.351,52.298,19.449,52.19,19.635z"/>
		<path style="fill:#293B51;" d="M55.639,19.969c0-0.35,0.111-0.637,0.334-0.859c0.223-0.223,0.509-0.334,0.859-0.334
			c0.35,0,0.629,0.111,0.836,0.334c0.206,0.223,0.31,0.51,0.31,0.859v0.239H56.33c0.017,0.127,0.072,0.227,0.168,0.299
			c0.096,0.071,0.207,0.107,0.334,0.107c0.223,0,0.422-0.064,0.597-0.19l0.382,0.382c-0.175,0.238-0.501,0.358-0.978,0.358
			c-0.351,0-0.637-0.111-0.859-0.334C55.75,20.605,55.639,20.319,55.639,19.969z M57.166,19.432
			c-0.096-0.071-0.207-0.107-0.334-0.107c-0.127,0-0.238,0.036-0.334,0.107c-0.096,0.072-0.144,0.172-0.144,0.299h0.955
			C57.309,19.603,57.262,19.504,57.166,19.432z"/>
		<path style="fill:#293B51;" d="M59.172,19.644v1.519h-0.669v-2.318l0.669-0.071v0.217c0.16-0.144,0.352-0.215,0.573-0.215
			c0.302,0,0.533,0.092,0.692,0.274c0.158,0.184,0.238,0.395,0.238,0.633v1.48h-0.668V19.85c0-0.159-0.04-0.282-0.12-0.37
			c-0.079-0.087-0.2-0.134-0.36-0.138C59.389,19.351,59.27,19.452,59.172,19.644z"/>
		<path style="fill:#293B51;" d="M62.316,21.163c-0.271,0-0.485-0.075-0.645-0.227c-0.159-0.15-0.239-0.346-0.239-0.584v-1.034
			h-0.358v-0.54h0.358v-0.646l0.671-0.072v0.719h0.358v0.54h-0.358v0.938c0,0.127,0.026,0.217,0.08,0.268
			c0.053,0.052,0.122,0.077,0.206,0.077c0.025,0,0.085-0.01,0.18-0.031l0.141,0.481C62.596,21.126,62.464,21.163,62.316,21.163z"/>
	</g>
	<g>
		<path style="fill-rule:evenodd;clip-rule:evenodd;fill:#293B51;" d="M1.416,14.643c0.976-0.816,1.8-1.508,2.627-2.196
			c2.759-2.297,5.527-4.581,8.268-6.898c0.511-0.432,0.855-0.404,1.355,0.019c2.955,2.494,5.945,4.946,8.902,7.439
			c0.517,0.435,1.035,0.63,1.711,0.629c8.672-0.017,31.18-0.025,37.196-0.024c0.253,0,0.506,0.004,0.758,0.021
			c0.326,0.024,0.406,0.251,0.41,0.53c0.004,0.284-0.081,0.508-0.403,0.535c-0.251,0.022-0.505,0.025-0.757,0.025
			c-17.318,0-20.271,0.014-37.589,0.026c-0.646,0-1.141-0.175-1.642-0.597c-2.858-2.413-5.761-4.774-8.615-7.192
			c-0.536-0.454-0.866-0.375-1.351,0.033c-2.863,2.407-5.763,4.773-8.613,7.193C3.039,14.726,2.403,14.825,1.416,14.643z"/>
	</g>
	<path style="fill-rule:evenodd;clip-rule:evenodd;fill:#293B51;" d="M34.623,11.539c0.244,0.358,0.602,0.406,1.001,0.404
		c1.77-0.009,3.539-0.011,5.309,0.004c0.264,0.003,0.71-0.149,0.692,0.331c-0.017,0.439-0.443,0.329-0.721,0.331
		c-1.82,0.012-3.641-0.005-5.46,0.013c-0.464,0.004-0.825-0.163-1.167-0.449c-3.125-2.605-6.266-5.192-9.37-7.823
		c-0.537-0.456-0.901-0.516-1.392-0.002c-0.311,0.326-0.692,0.591-1.061,0.853c-0.214,0.151-0.535,0.23-0.695,0.014
		c-0.189-0.255,0.155-0.375,0.305-0.508c0.472-0.421,0.992-0.788,1.442-1.229c0.496-0.487,0.924-0.532,1.392,0.015
		C25.007,3.621,31.527,8.952,34.623,11.539z"/>
	<path style="fill-rule:evenodd;clip-rule:evenodd;fill:#293B51;" d="M48.126,3.859c-0.376-0.433-0.611-0.447-1.012-0.025
		c-1.512,1.596-3.06,3.159-4.591,4.738c-0.399,0.413-1.113,1.117-1.517,1.548l0.139,0.259c0.051-0.066,0.396-0.297,0.468-0.368
		c1.728-1.739,3.437-3.498,5.132-5.269c0.368-0.385,0.606-0.4,0.961,0.013c0.872,1.017,1.799,1.985,2.668,3.005
		c0.414,0.486,0.907,0.529,1.58,0.498c-0.184-0.262-0.292-0.455-0.437-0.615C50.388,6.38,49.235,5.139,48.126,3.859z"/>
	<path style="fill-rule:evenodd;clip-rule:evenodd;fill:#293B51;" d="M49.794,1.229c-0.375-0.433-0.61-0.446-1.011-0.025
		c-1.512,1.597-3.06,3.159-4.591,4.738c-0.399,0.413-5.073,5.081-5.477,5.512c0,0,0.534-0.038,0.605-0.109
		c1.729-1.739,7.398-7.461,9.093-9.233c0.368-0.385,0.606-0.4,0.961,0.013c0.871,1.017,1.799,1.985,2.668,3.005
		c0.414,0.486,0.907,0.529,1.579,0.498c-0.183-0.262-0.291-0.455-0.436-0.615C52.057,3.75,50.904,2.509,49.794,1.229z"/>
	<path style="fill-rule:evenodd;clip-rule:evenodd;fill:#44BA8E;" d="M48.821,0.714c-0.266-0.099-0.408-0.058-0.543,0
		c-1.834,0.789-3.669,1.577-5.499,2.373c-0.328,0.143-0.647,0.248-1.018,0.234C36.51,3.13,31.258,2.948,26.006,2.77
		c-0.243-0.008-0.586-0.128-0.71,0.102c-0.174,0.318,6.575,5.822,9.672,8.409c2.189,0.317,4.386,0.09,6.579,0.067
		c0.576-0.007,0.264-0.368,0.088-0.536c-0.27-0.257-1.087-1.565-1.021-1.632C43.001,6.713,48.091,1.384,48.821,0.714z"/>
	<path style="fill-rule:evenodd;clip-rule:evenodd;fill:#44BA8E;" d="M12.557,12.409c0,0.168-0.136,0.304-0.304,0.304h-1.479
		c-0.168,0-0.304-0.136-0.304-0.304v-1.403c0-0.167,0.136-0.303,0.304-0.303h1.479c0.168,0,0.304,0.136,0.304,0.303V12.409z"/>
	<path style="fill-rule:evenodd;clip-rule:evenodd;fill:#44BA8E;" d="M15.363,12.409c0,0.168-0.136,0.304-0.304,0.304h-1.478
		c-0.168,0-0.304-0.136-0.304-0.304v-1.403c0-0.167,0.136-0.303,0.304-0.303h1.478c0.168,0,0.304,0.136,0.304,0.303V12.409z"/>
	<path style="fill-rule:evenodd;clip-rule:evenodd;fill:#44BA8E;" d="M12.557,14.837c0,0.168-0.136,0.304-0.304,0.304h-1.479
		c-0.168,0-0.304-0.136-0.304-0.304v-1.403c0-0.167,0.136-0.304,0.304-0.304h1.479c0.168,0,0.304,0.137,0.304,0.304V14.837z"/>
	<path style="fill-rule:evenodd;clip-rule:evenodd;fill:#44BA8E;" d="M15.363,14.837c0,0.168-0.136,0.304-0.304,0.304h-1.478
		c-0.168,0-0.304-0.136-0.304-0.304v-1.403c0-0.167,0.136-0.304,0.304-0.304h1.478c0.168,0,0.304,0.137,0.304,0.304V14.837z"/>
	<path style="fill-rule:evenodd;clip-rule:evenodd;fill:#44BA8E;" d="M47.094,8.015c0,0.082-0.066,0.147-0.148,0.147h-0.721
		c-0.082,0-0.148-0.065-0.148-0.147V7.331c0-0.082,0.066-0.148,0.148-0.148h0.721c0.081,0,0.148,0.065,0.148,0.148V8.015z"/>
	<path style="fill-rule:evenodd;clip-rule:evenodd;fill:#44BA8E;" d="M48.461,8.015c0,0.082-0.066,0.147-0.148,0.147h-0.721
		c-0.082,0-0.148-0.065-0.148-0.147V7.331c0-0.082,0.066-0.148,0.148-0.148h0.721c0.081,0,0.148,0.065,0.148,0.148V8.015z"/>
	<path style="fill-rule:evenodd;clip-rule:evenodd;fill:#44BA8E;" d="M47.094,9.197c0,0.081-0.066,0.147-0.148,0.147h-0.721
		c-0.082,0-0.148-0.066-0.148-0.147V8.514c0-0.082,0.066-0.148,0.148-0.148h0.721c0.081,0,0.148,0.066,0.148,0.148V9.197z"/>
	<path style="fill-rule:evenodd;clip-rule:evenodd;fill:#44BA8E;" d="M48.461,9.197c0,0.081-0.066,0.147-0.148,0.147h-0.721
		c-0.082,0-0.148-0.066-0.148-0.147V8.514c0-0.082,0.066-0.148,0.148-0.148h0.721c0.081,0,0.148,0.066,0.148,0.148V9.197z"/>
	<path style="fill-rule:evenodd;clip-rule:evenodd;fill:#44BA8E;" d="M28.776,13.04c-1.411,0-2.821-0.006-4.232,0.002
		c-0.433,0.003-0.816-0.083-1.159-0.359c-3.148-2.528-6.206-5.137-9.352-7.667c-0.181-0.147-0.559-0.273-0.414-0.548
		c0.132-0.251,0.474-0.062,0.724-0.048c2.813,0.162,5.526,0.449,8.343,0.565c1.244,0.052,2.276,0.341,3.248,1.178
		c2.451,2.111,5.006,4.11,7.514,6.16c0.185,0.151,0.545,0.26,0.427,0.553c-0.112,0.278-0.461,0.159-0.708,0.161
		C31.702,13.046,30.24,13.041,28.776,13.04z"/>
</g>
</svg>
