<svg xmlns="http://www.w3.org/2000/svg" viewBox="0 0 913.88958 206.2959"><title>Asset 2</title><g id="Layer_2" data-name="Layer 2"><g id="Layer_1-2" data-name="Layer 1"><path d="M190.168,31.5176v59.376s3.082,23.8066,30.8086,23.8066H282.874s-5.041-20.1655-31.9287-20.1655H215.375s-4.7617.8403-4.7617-7.8423V56.7246S206.4121,33.1973,190.168,31.5176Z" style="fill:#20a8e0"/><path d="M296.9707,31.5176V88.6533s.75,26.0469,26.1426,26.0469h34.72849s26.1406,1.9609,29.876-22.686V31.5176s-20.1631,8.2148-20.1631,28.0078V85.293s1.1201,9.709-9.3379,9.709H323.8613s-7.0957.3745-7.0957-7.8423V55.044S313.7744,34.8784,296.9707,31.5176Z" style="fill:#20a8e0"/><path d="M671.8945,115.4854V58.3491s-.748-26.0468-26.14061-26.0468h-34.7295s-26.1396-1.9615-29.874,22.6855v60.4976s20.16311-8.2168,20.16311-28.0083V61.71s-1.12011-9.7095,9.33589-9.7095h34.3565s7.0957-.374,7.0957,7.8423V91.9585S655.09279,112.124,671.8945,115.4854Z" style="fill:#20a8e0"/><path d="M754.92768,32.7373H710.4365s-23.61621.6787-23.61621,23.7017V87.9268s-1.7773,23.6992,20.5693,27.0859h49.93359s-3.9345-18.2822-21.87889-18.2822h-21.9599s-8.8028,1.0166-8.8028-8.4639V57.1172s-.3388-6.4336,7.1084-6.4336h29.1201C760.28708,47.8091,755.5195,29.7798,754.92768,32.7373Z" style="fill:#20a8e0"/><path d="M403.77539,114.7002V57.6592s1.86811-24.6475,25.3955-24.6475h71.3252s27.2607,1.1197,27.2607,26.5137v55.2129s-16.8027-7.7861-17.9228-24.5908V60.6455s1.1181-10.083-10.8321-10.083h-13.0693s-7.8428-1.8667-7.8428,9.7095v54.4663s-17.1767-3.6787-18.6699-27.2056V58.4053s.4639-8.1226-12.7012-8.1226H436.917s-15.124-1.4008-15.124,9.8023V85.293S422.16889,106.8584,403.77539,114.7002Z" style="fill:#20a8e0"/><path d="M563.74609,33.0117V91.9942s-2.4863,17.0732-19.1817,22.7441V62.5122S545.27539,39.7402,563.74609,33.0117Z" style="fill:#20a8e0"/><path d="M563.74609,0s3.8857,26.4116-20.60059,33.0117C543.1455,33.0117,539.23629,7.6758,563.74609,0Z" style="fill:#20a8e0"/><path d="M756.69918,57.708V90.1006s3.293,22.2383,20.501,24.9121V56.19s-4.0488-23.4527-22.2725-23.4527L726.584,50.6836h14.3261S756.69918,49.103,756.69918,57.708Z" style="fill:#20a8e0"/><path d="M401.55079,169.6436v25.124s1.30271,10.0732,13.0361,10.0732h26.1895s-2.1338-8.5332-13.5088-8.5332h-15.0537s-2.0127.3555-2.0127-3.3183V180.3096S408.42279,170.3545,401.55079,169.6436Z" style="fill:#20a8e0"/><path d="M338.0508,168.4619v25.0137s.3301,11.4043,11.44629,11.4043h15.205s11.44141.8574,13.0811-9.9336V168.4619s-8.8301,3.5977-8.8301,12.2617v11.2803a3.75448,3.75448,0,0,1-4.0908,4.251h-15.0361s-3.10749.1641-3.10749-3.4336V178.7627S345.4101,169.9326,338.0508,168.4619Z" style="fill:#20a8e0"/><path d="M583.38179,193.002V180.2588s-.3115-10.8144-10.8545-10.8144h-14.416s-10.8535-.8135-12.4033,9.4189v25.1162s8.3701-3.4101,8.3701-11.6269V181.6543a3.55851,3.55851,0,0,1,3.875-4.0303h14.2656s2.9463-.1562,2.9463,3.2559v2.3555S576.40529,191.6065,583.38179,193.002Z" style="fill:#20a8e0"/><path d="M715.37109,204.7666V180.3184s-.3203-11.1465-11.1865-11.1465h-14.8584s-11.1856-.8389-12.7871,9.708v25.8867s8.6308-3.5146,8.6308-11.9834V181.7569a3.66778,3.66778,0,0,1,3.9961-4.1553h14.7002s3.0361-.1602,3.0361,3.3574v13.7402S708.17969,203.3291,715.37109,204.7666Z" style="fill:#20a8e0"/><path d="M764.44918,168.4531H736.80179s-12.6045.3096-12.6045,10.8252v14.3789s-.9473,10.8252,10.9804,12.3721h29.27149s-3.9766-8.3506-13.55268-8.3506H738.42869s-4.69819.4649-4.69819-3.8672V179.586s-.18361-2.9385,3.79679-2.9385h15.53709S762.82128,175.4111,764.44918,168.4531Z" style="fill:#20a8e0"/><path d="M530.04879,168.3389H509.5225s-10.89461.3144-10.89461,10.9346v14.5263s-.8203,10.9336,9.4893,12.4961h28.0849s-1.8154-8.4346-10.0947-8.4346h-15.1797a3.58585,3.58585,0,0,1-4.0605-3.9052V179.586s-.1563-2.9678,3.28031-2.9678H523.581C532.5215,175.292,530.32029,166.9736,530.04879,168.3389Z" style="fill:#20a8e0"/><path d="M668.56639,169.707v26.2139s-1.1016,7.5899-8.5244,10.1084V182.8184S660.35939,172.6983,668.56639,169.707Z" style="fill:#20a8e0"/><path d="M631.166,167.1983H603.292s-8.0684,1.1025-10.749,8.5253h24.6836S627.98629,175.4053,631.166,167.1983Z" style="fill:#20a8e0"/><path d="M668.56639,155.0352s1.7295,11.7383-9.1514,14.6718C659.415,169.707,657.67679,158.4463,668.56639,155.0352Z" style="fill:#20a8e0"/><path d="M393.97259,168.5176v26.2139s-1.1025,7.5898-8.5253,10.1093V181.6289S385.76659,171.5078,393.97259,168.5176Z" style="fill:#20a8e0"/><path d="M393.97259,153.8447s1.7286,11.7383-9.1533,14.6729C384.81929,168.5176,383.083,157.2569,393.97259,153.8447Z" style="fill:#20a8e0"/><path d="M779.94138,200.7569a4.53437,4.53437,0,1,1-4.5283-4.7774A4.65591,4.65591,0,0,1,779.94138,200.7569Z" style="fill:#20a8e0"/><path d="M511.46969,192.2363s1.9776-7.0966,8.5791-7.0966h6.5196s2.9687-.4932,2.9687-4.2891c0,0,1.90141-4.2324-7.0098-4.2324l7.5215-8.2793s7.4922,1.3047,6.2432,14.8222c0,0,.9892,9.0752-12.4121,9.0752Z" style="fill:#20a8e0"/><path d="M621.22659,187.2412h-1.8038a5.12654,5.12654,0,0,1,2.8731.877A9.71477,9.71477,0,0,0,621.22659,187.2412Z" style="fill:#20a8e0"/><path d="M620.59859,197.5049s.0908-.0703.2178-.1758a5.10763,5.10763,0,0,1-1.00389.1758Z" style="fill:#20a8e0"/><path d="M623.10939,181.4385H592.543c2.2744,5.4394,8.60351,5.8027,8.60351,5.8027h20.08009a9.71477,9.71477,0,0,1,1.0693.877,5.13407,5.13407,0,0,1-1.4795,9.2109c-.127.1055-.2178.1758-.2178.1758h-.78609c-.13091.0098-.25681.0391-.38971.0391h-13.125c-.1337,0-.2587-.0293-.3896-.0391h-4.0811s-8.0673,1.1035-10.747,8.5244h24.6816a20.75552,20.75552,0,0,0,4.7979-.8662c11.04591-2.8379,10.6064-13.6855,10.6064-13.6855C632.11129,183.1104,623.10939,181.4385,623.10939,181.4385Z" style="fill:#20a8e0"/><path d="M290.791,155.0352v34.2402s.8066,14.0586,12.1348,14.0586h18.6074s10.5176-2.4404,10.5176-14.0586v-11.085s-3.6407-9.7285-12.9444-9.7285H301.7139s3.6396,7.2617,12.1357,7.2617h5.6621s5.6885.0108,5.6885,5.6875v6.7071s.0937,7.6504-7.6514,7.6504H303.7363s-5.1494,1.2158-5.1494-5.1475V167.1983S300.5,157.3643,290.791,155.0352Z" style="fill:#20a8e0"/><path d="M490.39259,156.1377v34.2422s-.8086,14.0576-12.1367,14.0576h-18.6065s-10.5185-2.4394-10.5185-14.0576V179.294s3.63961-9.7286,12.9443-9.7286h17.3926s-3.6407,7.2618-12.1348,7.2618h-5.6631s-5.6885.0117-5.6885,5.6884v6.7061s-.0947,7.6523,7.6524,7.6523h13.8135s5.1484,1.2139,5.1484-5.1494V168.3027S480.68259,158.4678,490.39259,156.1377Z" style="fill:#20a8e0"/><path d="M0,140.6426s28.6816-1.6865,34.8682-10.6856V114.7383H50.6133v12.9521s7.874-2.9394,23.0586-12.9902c0,0,45.5498,23.1309,124.2812,25.9424,0,0,152.04789-.0947,246.15329-12.9707,0,0,200.0928-11.0234,300.209,0,0,0,112.8135,13.083,169.5742,27.3633,0,0-139.664-23.2461-258.417-20.167,0,0-138.1113.0908-214.6962,4.5713L290.791,145.4151S158.12109,159.6074,75.8984,120.7686c0,0-23.6328,12.4336-29.455,16.0371V119.8936h-7.211v11.6445S25.9189,144.7569,0,140.6426Z" style="fill:#0b78be"/></g></g></svg>